<svg t="1522340130884" class="icon" style="" viewBox="0 0 1069 1024" version="1.1" xmlns="http://www.w3.org/2000/svg" p-id="1844" xmlns:xlink="http://www.w3.org/1999/xlink" width="22.966796875" height="22"><defs><style type="text/css"></style></defs><path d="M712.347826 0 356.173913 0C160.278261 0 0 160.278261 0 356.173913l0 124.66087c0 195.895652 160.278261 356.173913 356.173913 356.173913l191.443478 0 124.66087 111.304348c71.234783 66.782609 129.113043 40.069565 124.66087-57.878261l-4.452174-62.330435c155.826087-35.617391 271.582609-178.086957 271.582609-347.269565L1064.069565 356.173913C1068.521739 160.278261 908.243478 0 712.347826 0zM734.608696 534.26087l-400.695652 0C320.556522 534.26087 311.652174 525.356522 311.652174 512 311.652174 498.643478 320.556522 489.73913 333.913043 489.73913l400.695652 0c13.356522 0 22.26087 8.904348 22.26087 22.26087C756.869565 525.356522 747.965217 534.26087 734.608696 534.26087zM734.608696 356.173913l-400.695652 0C320.556522 356.173913 311.652174 347.269565 311.652174 333.913043 311.652174 320.556522 320.556522 311.652174 333.913043 311.652174l400.695652 0C747.965217 311.652174 756.869565 320.556522 756.869565 333.913043 756.869565 347.269565 747.965217 356.173913 734.608696 356.173913z" p-id="1845" fill="#1296db"></path></svg>
