<svg t="1522340154855" class="icon" style="" viewBox="0 0 1069 1024" version="1.1" xmlns="http://www.w3.org/2000/svg" p-id="2033" xmlns:xlink="http://www.w3.org/1999/xlink" width="22.966796875" height="22"><defs><style type="text/css"></style></defs><path d="M1068.521739 480.72615C1068.521739 648.547942 952.462924 789.255511 796.378005 826.925096L798.67847 890.636662C802.240036 989.274624 745.801292 1015.062016 672.650845 949.116104L548.099174 836.831441 355.802267 836.831441C159.298101 836.831441 0 677.460115 0 480.72615L0 356.105294C0 159.433771 159.391214 0 355.802267 0L712.719471 0C909.223638 0 1068.521739 159.371329 1068.521739 356.105294L1068.521739 480.72615ZM1024 356.105294C1024 183.974298 884.649232 44.521739 712.719471 44.521739L355.802267 44.521739C183.954419 44.521739 44.521739 184.047948 44.521739 356.105294L44.521739 480.72615C44.521739 652.857144 183.872509 792.309702 355.802267 792.309702L548.099174 792.309702C559.110705 792.309702 569.731575 796.390396 577.910236 803.763547L702.461907 916.048206C746.584776 955.825446 756.319196 951.329885 754.185724 892.24318L751.885259 828.531614C751.12147 807.378361 765.356709 788.611807 785.932996 783.645919 924.533818 750.195952 1024 625.439606 1024 480.72615L1024 356.105294ZM734.608696 356.173913C746.903036 356.173913 756.869565 346.207382 756.869565 333.913043 756.869565 321.618705 746.903036 311.652174 734.608696 311.652174L333.913043 311.652174C321.618705 311.652174 311.652174 321.618705 311.652174 333.913043 311.652174 346.207382 321.618705 356.173913 333.913043 356.173913L734.608696 356.173913ZM734.608696 534.26087C746.903036 534.26087 756.869565 524.29434 756.869565 512 756.869565 499.70566 746.903036 489.73913 734.608696 489.73913L333.913043 489.73913C321.618705 489.73913 311.652174 499.70566 311.652174 512 311.652174 524.29434 321.618705 534.26087 333.913043 534.26087L734.608696 534.26087Z" p-id="2034" fill="#707070"></path></svg>
