<svg t="1522496114640" class="icon" style="" viewBox="0 0 1024 1024" version="1.1" xmlns="http://www.w3.org/2000/svg" p-id="17433" xmlns:xlink="http://www.w3.org/1999/xlink" width="26" height="26"><defs><style type="text/css"></style></defs><path d="M192 880h640v16H192zM176 512h16v384h-16zM832 512h16v384h-16zM592 368h288v16H592zM880 368h16v128h-16zM128 496h768v16H128zM128 368h16v128h-16zM144 368h288v16H144zM432 128h16v256h-16z" p-id="17434" fill="#2c2c2c"></path><path d="M432 128h160v16H432z" p-id="17435" fill="#2c2c2c"></path><path d="M576 128h16v256h-16zM432 640h16v240h-16zM576 640h16v240h-16zM704 640h16v240h-16zM304 640h16v240h-16z" p-id="17436" fill="#2c2c2c"></path></svg>
