<svg t="1522415964472" class="icon" style="" viewBox="0 0 1052 1024" version="1.1" xmlns="http://www.w3.org/2000/svg" p-id="5982" xmlns:xlink="http://www.w3.org/1999/xlink" width="65.75" height="64"><defs><style type="text/css"></style></defs><path d="M776.704 364.060672l28.626944-63.070208 63.064064-29.106176-63.064064-28.624896-28.626944-63.072256-28.622848 63.072256-63.553536 28.624896 63.553536 29.106176 28.622848 63.070208zM546.742272 249.083904l-57.247744 126.619648-126.619648 57.247744 126.619648 57.247744 57.247744 126.62784 57.735168-126.62784 126.138368-57.247744-126.138368-57.247744-57.735168-126.619648z" fill="#FF962F" p-id="5983"></path><path d="M868.395008 417.429504v436.631552H188.22144V174.852096h436.631552V77.824H189.188096C135.821312 77.824 92.16 121.485312 92.16 174.852096v679.206912c0 53.366784 43.661312 97.028096 97.028096 97.028096h679.206912c53.366784 0 97.028096-43.661312 97.028096-97.028096V417.429504h-97.028096z" fill="#999999" p-id="5984"></path></svg>
